<svg width="16" height="17" viewBox="0 0 16 17" fill="none" xmlns="http://www.w3.org/2000/svg">
<path d="M12.9999 11.8467C14.0374 12.2875 14.6666 12.8658 14.6666 13.5C14.6666 14.8808 11.6816 16 7.99992 16C4.31825 16 1.33325 14.8808 1.33325 13.5C1.33325 12.8667 1.96242 12.2867 2.99992 11.8467" stroke="#6B7280" stroke-width="2" stroke-linecap="round" stroke-linejoin="round"/>
<path d="M12.1666 5.53667C12.1666 8.11417 7.99992 12.6667 7.99992 12.6667C7.99992 12.6667 3.83325 8.11417 3.83325 5.53667C3.83325 2.96 5.69909 1 7.99992 1C10.3008 1 12.1666 2.96 12.1666 5.53667V5.53667Z" stroke="#6B7280" stroke-width="2" stroke-linecap="round" stroke-linejoin="round"/>
<path d="M7.99984 5.99992C8.46007 5.99992 8.83317 5.62682 8.83317 5.16659C8.83317 4.70635 8.46007 4.33325 7.99984 4.33325C7.5396 4.33325 7.1665 4.70635 7.1665 5.16659C7.1665 5.62682 7.5396 5.99992 7.99984 5.99992Z" stroke="#6B7280" stroke-width="2" stroke-linecap="round" stroke-linejoin="round"/>
</svg>
